# Blender v3.2.0 OBJ File: 'gojo.blend'
# www.blender.org
mtllib gojo.mtl
o Cube
v 3.288107 -11.017859 0.614170
v 3.288107 0.239531 0.614170
v 3.288107 -11.017859 -0.418201
v 3.288107 0.239531 -0.418201
v -2.928830 -11.017859 0.614170
v -2.928830 0.239531 0.614170
v -2.928830 -11.017859 -0.418201
v -2.928830 0.239531 -0.418201
vt 0.625000 0.500000
vt 0.875000 0.500000
vt 0.875000 0.750000
vt 0.625000 0.750000
vt 0.375000 0.750000
vt 0.625000 1.000000
vt 0.375000 1.000000
vt 0.375000 0.000000
vt 0.625000 0.000000
vt 0.625000 0.250000
vt 0.375000 0.250000
vt 0.125000 0.500000
vt 0.375000 0.500000
vt 0.125000 0.750000
vn 0.0000 -1.0000 0.0000
vn 0.0000 0.0000 -1.0000
vn -1.0000 0.0000 0.0000
vn 0.0000 1.0000 0.0000
vn 1.0000 0.0000 0.0000
vn 0.0000 0.0000 1.0000
usemtl Material
s off
f 1/1/1 5/2/1 7/3/1 3/4/1
f 4/5/2 3/4/2 7/6/2 8/7/2
f 8/8/3 7/9/3 5/10/3 6/11/3
f 6/12/4 2/13/4 4/5/4 8/14/4
f 2/13/5 1/1/5 3/4/5 4/5/5
f 6/11/6 5/10/6 1/1/6 2/13/6
o Cone
v 0.685894 -1.068214 -5.476215
v 2.047881 -1.068214 -5.370364
v 3.357527 -1.068214 -5.056877
v 4.564504 -1.068214 -4.547802
v 5.622428 -1.068214 -3.862703
v 6.490644 -1.068214 -3.027906
v 7.135786 -1.068214 -2.075494
v 7.533063 -1.068214 -1.042067
v 7.667207 -1.068214 0.032662
v 7.533063 -1.068214 1.107391
v 7.135787 -1.068214 2.140818
v 6.490644 -1.068214 3.093230
v 5.622428 -1.068214 3.928026
v 4.564504 -1.068214 4.613126
v 3.357527 -1.068214 5.122200
v 2.047881 -1.068214 5.435688
v 0.685893 -1.068214 5.541539
v -0.676092 -1.068214 5.435688
v -1.985739 -1.068214 5.122200
v -3.192716 -1.068214 4.613125
v -4.250639 -1.068214 3.928027
v -5.118855 -1.068214 3.093231
v -5.763998 -1.068214 2.140819
v -6.161275 -1.068214 1.107391
v -6.295419 -1.068214 0.032662
v -6.161275 -1.068214 -1.042067
v -5.763998 -1.068214 -2.075495
v -5.118856 -1.068214 -3.027905
v -4.250641 -1.068214 -3.862702
v -3.192716 -1.068214 -4.547802
v -1.985739 -1.068214 -5.056877
v -0.676092 -1.068214 -5.370364
v 0.685894 2.897263 0.032662
vt 0.250000 0.490000
vt 0.250000 0.250000
vt 0.296822 0.485388
vt 0.341844 0.471731
vt 0.383337 0.449553
vt 0.419706 0.419706
vt 0.449553 0.383337
vt 0.471731 0.341844
vt 0.485388 0.296822
vt 0.490000 0.250000
vt 0.485388 0.203178
vt 0.471731 0.158156
vt 0.449553 0.116663
vt 0.419706 0.080294
vt 0.383337 0.050447
vt 0.341844 0.028269
vt 0.296822 0.014612
vt 0.250000 0.010000
vt 0.203178 0.014612
vt 0.158156 0.028269
vt 0.116663 0.050447
vt 0.080294 0.080294
vt 0.050447 0.116663
vt 0.028269 0.158156
vt 0.014612 0.203178
vt 0.010000 0.250000
vt 0.014612 0.296822
vt 0.028269 0.341844
vt 0.050447 0.383337
vt 0.080294 0.419706
vt 0.116663 0.449553
vt 0.158156 0.471731
vt 0.750000 0.490000
vt 0.796822 0.485388
vt 0.841844 0.471731
vt 0.883337 0.449553
vt 0.919706 0.419706
vt 0.949553 0.383337
vt 0.971731 0.341844
vt 0.985388 0.296822
vt 0.990000 0.250000
vt 0.985388 0.203178
vt 0.971731 0.158156
vt 0.949553 0.116663
vt 0.919706 0.080294
vt 0.883337 0.050447
vt 0.841844 0.028269
vt 0.796822 0.014612
vt 0.750000 0.010000
vt 0.703178 0.014612
vt 0.658156 0.028269
vt 0.616663 0.050447
vt 0.580294 0.080294
vt 0.550447 0.116663
vt 0.528269 0.158156
vt 0.514612 0.203178
vt 0.510000 0.250000
vt 0.514612 0.296822
vt 0.528269 0.341844
vt 0.550447 0.383337
vt 0.580294 0.419706
vt 0.616663 0.449553
vt 0.658156 0.471731
vt 0.703178 0.485388
vt 0.203178 0.485388
vn 0.0454 0.8108 -0.5836
vn 0.1350 0.8147 -0.5639
vn 0.2212 0.8222 -0.5245
vn 0.3013 0.8323 -0.4653
vn 0.3722 0.8436 -0.3871
vn 0.4301 0.8545 -0.2913
vn 0.4714 0.8631 -0.1812
vn 0.4930 0.8679 -0.0615
vn 0.4930 0.8679 0.0615
vn 0.4714 0.8631 0.1812
vn 0.4301 0.8545 0.2913
vn 0.3722 0.8436 0.3871
vn 0.3013 0.8323 0.4653
vn 0.2212 0.8222 0.5245
vn 0.1350 0.8147 0.5639
vn 0.0454 0.8108 0.5836
vn -0.0454 0.8108 0.5836
vn -0.1350 0.8147 0.5639
vn -0.2212 0.8222 0.5245
vn -0.3013 0.8323 0.4653
vn -0.3722 0.8436 0.3871
vn -0.4301 0.8545 0.2913
vn -0.4714 0.8631 0.1812
vn -0.4930 0.8679 0.0615
vn -0.4930 0.8679 -0.0615
vn -0.4714 0.8631 -0.1812
vn -0.4301 0.8545 -0.2913
vn -0.3722 0.8436 -0.3871
vn -0.3013 0.8323 -0.4653
vn -0.2212 0.8222 -0.5245
vn 0.0000 -1.0000 -0.0000
vn -0.1350 0.8147 -0.5639
vn -0.0454 0.8108 -0.5836
usemtl None
s off
f 9/15/7 41/16/7 10/17/7
f 10/17/8 41/16/8 11/18/8
f 11/18/9 41/16/9 12/19/9
f 12/19/10 41/16/10 13/20/10
f 13/20/11 41/16/11 14/21/11
f 14/21/12 41/16/12 15/22/12
f 15/22/13 41/16/13 16/23/13
f 16/23/14 41/16/14 17/24/14
f 17/24/15 41/16/15 18/25/15
f 18/25/16 41/16/16 19/26/16
f 19/26/17 41/16/17 20/27/17
f 20/27/18 41/16/18 21/28/18
f 21/28/19 41/16/19 22/29/19
f 22/29/20 41/16/20 23/30/20
f 23/30/21 41/16/21 24/31/21
f 24/31/22 41/16/22 25/32/22
f 25/32/23 41/16/23 26/33/23
f 26/33/24 41/16/24 27/34/24
f 27/34/25 41/16/25 28/35/25
f 28/35/26 41/16/26 29/36/26
f 29/36/27 41/16/27 30/37/27
f 30/37/28 41/16/28 31/38/28
f 31/38/29 41/16/29 32/39/29
f 32/39/30 41/16/30 33/40/30
f 33/40/31 41/16/31 34/41/31
f 34/41/32 41/16/32 35/42/32
f 35/42/33 41/16/33 36/43/33
f 36/43/34 41/16/34 37/44/34
f 37/44/35 41/16/35 38/45/35
f 38/45/36 41/16/36 39/46/36
f 9/47/37 10/48/37 11/49/37 12/50/37 13/51/37 14/52/37 15/53/37 16/54/37 17/55/37 18/56/37 19/57/37 20/58/37 21/59/37 22/60/37 23/61/37 24/62/37 25/63/37 26/64/37 27/65/37 28/66/37 29/67/37 30/68/37 31/69/37 32/70/37 33/71/37 34/72/37 35/73/37 36/74/37 37/75/37 38/76/37 39/77/37 40/78/37
f 39/46/38 41/16/38 40/79/38
f 40/79/39 41/16/39 9/15/39
